<svg xmlns="http://www.w3.org/2000/svg" xmlns:xlink="http://www.w3.org/1999/xlink" width="33.615" height="35.216" viewBox="0 0 33.615 35.216"><defs><style>.a{fill:#fff;}.b{filter:url(#a);}</style><filter id="a" x="0" y="0" width="33.615" height="35.216" filterUnits="userSpaceOnUse"><feOffset dx="2" dy="2" input="SourceAlpha"/><feGaussianBlur stdDeviation="1.5" result="b"/><feFlood flood-opacity="0.161"/><feComposite operator="in" in2="b"/><feComposite in="SourceGraphic"/></filter></defs><g class="b" transform="matrix(1, 0, 0, 1, 0, 0)"><path class="a" d="M248.971,301.906l-4.746-3.311v-5.3l8.5,5.961Zm1.987,1.325,2.76-1.876v3.863Zm-6.733,4.636,4.746-3.311,3.863,2.649-8.61,5.961Zm-6.954-3.311,4.746,3.311v5.3l-8.5-5.961Zm-1.987-1.325-2.76,1.876v-3.863Zm6.733-4.636-4.746,3.311-3.863-2.649,8.5-5.961v5.3Zm1.1,7.285-3.863-2.649,3.863-2.649,3.863,2.649Zm12.694-6.844h0v-.442h0v-.11h0v-.11h-.11l-11.59-8.058a1.2,1.2,0,0,0-1.214,0l-11.59,8.058h-.11v.11h0v.11h0v.552h0v8.279h0v.331h0v.11h0v.11h0v.11h.11l11.59,8.058a1.865,1.865,0,0,0,.552.221.843.843,0,0,0,.552-.221l11.59-8.058h.11v-.11h0v-.11h0v-.11h0v-.331h0v-8.168c.11-.11.11-.11.11-.221Z" transform="translate(-228.7 -287.65)"/></g></svg>