<svg xmlns="http://www.w3.org/2000/svg" xmlns:xlink="http://www.w3.org/1999/xlink" width="139.437" height="139.437" viewBox="0 0 139.437 139.437"><defs><style>.a{fill:#fff;}.b{fill:#8ac4e3;}.c{fill:#f76c6c;}.d{fill:#d2d2d6;}.e{filter:url(#y);}.f{filter:url(#w);}.g{filter:url(#u);}.h{filter:url(#s);}.i{filter:url(#q);}.j{filter:url(#o);}.k{filter:url(#m);}.l{filter:url(#k);}.m{filter:url(#i);}.n{filter:url(#g);}.o{filter:url(#e);}.p{filter:url(#c);}.q{filter:url(#a);}</style><filter id="a" x="0" y="46.584" width="38.171" height="46.268" filterUnits="userSpaceOnUse"><feOffset dx="2" dy="2" input="SourceAlpha"/><feGaussianBlur stdDeviation="1.5" result="b"/><feFlood flood-opacity="0.161"/><feComposite operator="in" in2="b"/><feComposite in="SourceGraphic"/></filter><filter id="c" x="101.266" y="46.584" width="38.171" height="46.268" filterUnits="userSpaceOnUse"><feOffset dx="2" dy="2" input="SourceAlpha"/><feGaussianBlur stdDeviation="1.5" result="d"/><feFlood flood-opacity="0.161"/><feComposite operator="in" in2="d"/><feComposite in="SourceGraphic"/></filter><filter id="e" x="86.106" y="3.494" width="46.948" height="42.774" filterUnits="userSpaceOnUse"><feOffset dx="2" dy="2" input="SourceAlpha"/><feGaussianBlur stdDeviation="1.5" result="f"/><feFlood flood-opacity="0.161"/><feComposite operator="in" in2="f"/><feComposite in="SourceGraphic"/></filter><filter id="g" x="6.382" y="93.169" width="46.948" height="42.774" filterUnits="userSpaceOnUse"><feOffset dx="2" dy="2" input="SourceAlpha"/><feGaussianBlur stdDeviation="1.5" result="h"/><feFlood flood-opacity="0.161"/><feComposite operator="in" in2="h"/><feComposite in="SourceGraphic"/></filter><filter id="i" x="6.373" y="3.494" width="46.947" height="42.774" filterUnits="userSpaceOnUse"><feOffset dx="2" dy="2" input="SourceAlpha"/><feGaussianBlur stdDeviation="1.5" result="j"/><feFlood flood-opacity="0.161"/><feComposite operator="in" in2="j"/><feComposite in="SourceGraphic"/></filter><filter id="k" x="40.239" y="93.169" width="58.958" height="46.268" filterUnits="userSpaceOnUse"><feOffset dx="2" dy="2" input="SourceAlpha"/><feGaussianBlur stdDeviation="1.5" result="l"/><feFlood flood-opacity="0.161"/><feComposite operator="in" in2="l"/><feComposite in="SourceGraphic"/></filter><filter id="m" x="86.116" y="93.169" width="46.947" height="42.774" filterUnits="userSpaceOnUse"><feOffset dx="2" dy="2" input="SourceAlpha"/><feGaussianBlur stdDeviation="1.5" result="n"/><feFlood flood-opacity="0.161"/><feComposite operator="in" in2="n"/><feComposite in="SourceGraphic"/></filter><filter id="o" x="37.268" y="46.584" width="64.901" height="46.268" filterUnits="userSpaceOnUse"><feOffset dx="2" dy="2" input="SourceAlpha"/><feGaussianBlur stdDeviation="1.5" result="p"/><feFlood flood-opacity="0.161"/><feComposite operator="in" in2="p"/><feComposite in="SourceGraphic"/></filter><filter id="q" x="40.239" y="0" width="58.958" height="46.268" filterUnits="userSpaceOnUse"><feOffset dx="2" dy="2" input="SourceAlpha"/><feGaussianBlur stdDeviation="1.5" result="r"/><feFlood flood-opacity="0.161"/><feComposite operator="in" in2="r"/><feComposite in="SourceGraphic"/></filter><filter id="s" x="40.536" y="43.315" width="64.901" height="46.268" filterUnits="userSpaceOnUse"><feOffset dx="2" dy="2" input="SourceAlpha"/><feGaussianBlur stdDeviation="1.5" result="t"/><feFlood flood-opacity="0.161"/><feComposite operator="in" in2="t"/><feComposite in="SourceGraphic"/></filter><filter id="u" x="89.376" y="0.225" width="46.948" height="42.774" filterUnits="userSpaceOnUse"><feOffset dx="2" dy="2" input="SourceAlpha"/><feGaussianBlur stdDeviation="1.5" result="v"/><feFlood flood-opacity="0.161"/><feComposite operator="in" in2="v"/><feComposite in="SourceGraphic"/></filter><filter id="w" x="89.385" y="89.9" width="46.947" height="42.774" filterUnits="userSpaceOnUse"><feOffset dx="2" dy="2" input="SourceAlpha"/><feGaussianBlur stdDeviation="1.5" result="x"/><feFlood flood-opacity="0.161"/><feComposite operator="in" in2="x"/><feComposite in="SourceGraphic"/></filter><filter id="y" x="9.651" y="89.9" width="46.948" height="42.774" filterUnits="userSpaceOnUse"><feOffset dx="2" dy="2" input="SourceAlpha"/><feGaussianBlur stdDeviation="1.5" result="z"/><feFlood flood-opacity="0.161"/><feComposite operator="in" in2="z"/><feComposite in="SourceGraphic"/></filter></defs><g transform="translate(2.5 2.5)"><g class="q" transform="matrix(1, 0, 0, 1, -2.5, -2.5)"><path class="a" d="M268.951,214.634A146.484,146.484,0,0,1,270.171,196H243.748a64.537,64.537,0,0,0,0,37.268h26.423A146.484,146.484,0,0,1,268.951,214.634Z" transform="translate(-238.5 -146.92)"/></g><g class="p" transform="matrix(1, 0, 0, 1, -2.5, -2.5)"><path class="a" d="M253.089,214.634a146.484,146.484,0,0,1-1.221,18.634h26.423a64.54,64.54,0,0,0,0-37.268H251.869A146.484,146.484,0,0,1,253.089,214.634Z" transform="translate(-148.1 -146.92)"/></g><g class="o" transform="matrix(1, 0, 0, 1, -2.5, -2.5)"><path class="a" d="M288.19,225.149a65.455,65.455,0,0,0-37.948-33.774c6.075,8.236,10.854,19.994,13.64,33.774Z" transform="translate(-161.64 -185.38)"/></g><g class="n" transform="matrix(1, 0, 0, 1, -2.5, -2.5)"><path class="a" d="M241.685,201a65.456,65.456,0,0,0,37.948,33.774c-6.075-8.236-10.854-19.994-13.64-33.774Z" transform="translate(-232.8 -105.33)"/></g><g class="m" transform="matrix(1, 0, 0, 1, -2.5, -2.5)"><path class="a" d="M265.992,225.149c2.8-13.78,7.565-25.538,13.64-33.774a65.457,65.457,0,0,0-37.948,33.774Z" transform="translate(-232.81 -185.38)"/></g><g class="l" transform="matrix(1, 0, 0, 1, -2.5, -2.5)"><path class="a" d="M295.276,201H245.319c4.966,22.444,15.373,37.268,24.978,37.268S290.31,223.444,295.276,201Z" transform="translate(-202.58 -105.33)"/></g><g class="k" transform="matrix(1, 0, 0, 1, -2.5, -2.5)"><path class="a" d="M263.883,201c-2.8,13.78-7.565,25.538-13.64,33.774A65.456,65.456,0,0,0,288.19,201Z" transform="translate(-161.63 -105.33)"/></g><g class="j" transform="matrix(1, 0, 0, 1, -2.5, -2.5)"><path class="a" d="M300.9,214.634a134.511,134.511,0,0,0-1.3-18.634H246.3a134.688,134.688,0,0,0,0,37.268h53.311A134.511,134.511,0,0,0,300.9,214.634Z" transform="translate(-205.23 -146.92)"/></g><g class="i" transform="matrix(1, 0, 0, 1, -2.5, -2.5)"><path class="a" d="M245.319,228.268h49.957C290.31,205.823,279.9,191,270.3,191S250.285,205.823,245.319,228.268Z" transform="translate(-202.58 -188.5)"/></g><g class="h" transform="matrix(1, 0, 0, 1, -2.5, -2.5)"><path class="b" d="M300.9,214.634a134.511,134.511,0,0,0-1.3-18.634H246.3a134.688,134.688,0,0,0,0,37.268h53.311A134.511,134.511,0,0,0,300.9,214.634Z" transform="translate(-201.96 -150.18)"/></g><g class="g" transform="matrix(1, 0, 0, 1, -2.5, -2.5)"><path class="c" d="M288.19,225.149a65.455,65.455,0,0,0-37.948-33.774c6.075,8.236,10.854,19.994,13.64,33.774Z" transform="translate(-158.37 -188.65)"/></g><g class="f" transform="matrix(1, 0, 0, 1, -2.5, -2.5)"><path class="a" d="M263.883,201c-2.8,13.78-7.565,25.538-13.64,33.774A65.456,65.456,0,0,0,288.19,201Z" transform="translate(-158.36 -108.6)"/></g><g class="e" transform="matrix(1, 0, 0, 1, -2.5, -2.5)"><path class="d" d="M241.685,201a65.456,65.456,0,0,0,37.948,33.774c-6.075-8.236-10.854-19.994-13.64-33.774Z" transform="translate(-229.53 -108.6)"/></g></g></svg>