<svg xmlns="http://www.w3.org/2000/svg" xmlns:xlink="http://www.w3.org/1999/xlink" width="47" height="47" viewBox="0 0 47 47"><defs><style>.a{fill:#fff;}.b{filter:url(#a);}</style><filter id="a" x="0" y="0" width="47" height="47" filterUnits="userSpaceOnUse"><feOffset dy="2" input="SourceAlpha"/><feGaussianBlur stdDeviation="1" result="b"/><feFlood flood-opacity="0.161"/><feComposite operator="in" in2="b"/><feComposite in="SourceGraphic"/></filter></defs><g class="b" transform="matrix(1, 0, 0, 1, 0, 0)"><path class="a" d="M-1969.5,41a20.378,20.378,0,0,1-7.979-1.611A20.43,20.43,0,0,1-1984,35a20.433,20.433,0,0,1-4.393-6.516A20.37,20.37,0,0,1-1990,20.5a20.37,20.37,0,0,1,1.611-7.98A20.433,20.433,0,0,1-1984,6a20.43,20.43,0,0,1,6.517-4.394A20.378,20.378,0,0,1-1969.5,0a20.378,20.378,0,0,1,7.979,1.611A20.415,20.415,0,0,1-1955,6a20.421,20.421,0,0,1,4.394,6.516A20.37,20.37,0,0,1-1949,20.5a20.37,20.37,0,0,1-1.611,7.98A20.421,20.421,0,0,1-1955,35a20.415,20.415,0,0,1-6.516,4.394A20.378,20.378,0,0,1-1969.5,41Zm.551-19.153h0l-.407.407,3.824,3.826a.563.563,0,0,0,.4.167.565.565,0,0,0,.4-.167l.805-.806a.569.569,0,0,0,0-.805l-3.825-3.825,3.825-3.825a.571.571,0,0,0,0-.805l-.805-.806a.567.567,0,0,0-.4-.167.565.565,0,0,0-.4.167l-3.825,3.825-3.825-3.825a.566.566,0,0,0-.4-.167.565.565,0,0,0-.4.167l-.806.805a.569.569,0,0,0,0,.805l3.825,3.825-3.825,3.825a.569.569,0,0,0,0,.805l.806.806a.565.565,0,0,0,.4.167.566.566,0,0,0,.4-.167l3.824-3.824-.809-.809.81.808Z" transform="translate(1993 1)"/></g></svg>