<svg xmlns="http://www.w3.org/2000/svg" xmlns:xlink="http://www.w3.org/1999/xlink" width="32.877" height="32.999" viewBox="0 0 32.877 32.999"><defs><style>.a{fill:#fff;}.b{filter:url(#a);}</style><filter id="a" x="0" y="0" width="32.877" height="32.999" filterUnits="userSpaceOnUse"><feOffset dx="2" dy="2" input="SourceAlpha"/><feGaussianBlur stdDeviation="1.5" result="b"/><feFlood flood-opacity="0.161"/><feComposite operator="in" in2="b"/><feComposite in="SourceGraphic"/></filter></defs><g class="b" transform="matrix(1, 0, 0, 1, 0, 0)"><path class="a" d="M170,302.289a12.361,12.361,0,0,0,8.192,11.689.608.608,0,0,0,.8-.6v-2.1c-3.3.7-4-1.6-4-1.6a3.164,3.164,0,0,0-1.3-1.8c-1.1-.8.1-.7.1-.7a2.468,2.468,0,0,1,1.8,1.3,2.512,2.512,0,0,0,3.5,1,2.224,2.224,0,0,1,.8-1.6c-2.7-.3-5.495-1.4-5.495-6.094a5.313,5.313,0,0,1,1.2-3.3,5.1,5.1,0,0,1,.1-3.3s1-.3,3.3,1.3a11.44,11.44,0,0,1,5.994,0c2.3-1.6,3.3-1.3,3.3-1.3a4.513,4.513,0,0,1,.1,3.3,4.786,4.786,0,0,1,1.2,3.3c0,4.7-2.8,5.795-5.495,6.094a3.1,3.1,0,0,1,.8,2.3v3.4a.608.608,0,0,0,.8.6,12.352,12.352,0,0,0-3.8-23.978C175.395,290,170,295.5,170,302.289Z" transform="translate(-167.5 -287.7)"/></g></svg>