<svg xmlns="http://www.w3.org/2000/svg" xmlns:xlink="http://www.w3.org/1999/xlink" width="47" height="47.001" viewBox="0 0 47 47.001"><defs><style>.a{fill:#fff;}.b{filter:url(#a);}</style><filter id="a" x="0" y="0" width="47" height="47.001" filterUnits="userSpaceOnUse"><feOffset dy="2" input="SourceAlpha"/><feGaussianBlur stdDeviation="1" result="b"/><feFlood flood-opacity="0.161"/><feComposite operator="in" in2="b"/><feComposite in="SourceGraphic"/></filter></defs><g class="b" transform="matrix(1, 0, 0, 1, 0, 0)"><path class="a" d="M-4054.5,41a20.37,20.37,0,0,1-7.979-1.611A20.433,20.433,0,0,1-4069,35a20.434,20.434,0,0,1-4.393-6.516A20.37,20.37,0,0,1-4075,20.5a20.368,20.368,0,0,1,1.611-7.979A20.433,20.433,0,0,1-4069,6a20.433,20.433,0,0,1,6.516-4.393A20.37,20.37,0,0,1-4054.5,0a20.374,20.374,0,0,1,7.98,1.611A20.438,20.438,0,0,1-4040,6a20.433,20.433,0,0,1,4.393,6.516A20.368,20.368,0,0,1-4034,20.5a20.37,20.37,0,0,1-1.611,7.98A20.433,20.433,0,0,1-4040,35a20.437,20.437,0,0,1-6.516,4.394A20.373,20.373,0,0,1-4054.5,41Zm-5.833-17.084a1,1,0,0,0-1,1v.278a1,1,0,0,0,1,1h12.236a1,1,0,0,0,1-1v-.278a1,1,0,0,0-1-1Zm0-4.555a1,1,0,0,0-1,1v.278a1,1,0,0,0,1,1h12.236a1,1,0,0,0,1-1v-.278a1,1,0,0,0-1-1Zm0-4.556a1,1,0,0,0-1,1v.278a1,1,0,0,0,1,1h12.236a1,1,0,0,0,1-1v-.278a1,1,0,0,0-1-1Z" transform="translate(4078 1)"/></g></svg>