<svg xmlns="http://www.w3.org/2000/svg" xmlns:xlink="http://www.w3.org/1999/xlink" width="31.187" height="31.187" viewBox="0 0 31.187 31.187"><defs><style>.a{fill:#fff;}.b{filter:url(#a);}</style><filter id="a" x="0" y="0" width="31.187" height="31.187" filterUnits="userSpaceOnUse"><feOffset dx="2" dy="2" input="SourceAlpha"/><feGaussianBlur stdDeviation="1.5" result="b"/><feFlood flood-opacity="0.161"/><feComposite operator="in" in2="b"/><feComposite in="SourceGraphic"/></filter></defs><g class="b" transform="matrix(1, 0, 0, 1, 0, 0)"><path class="a" d="M249.782,52H236.2a4.31,4.31,0,0,0-4.3,4.3V69.882a4.31,4.31,0,0,0,4.3,4.3h13.577a4.31,4.31,0,0,0,4.3-4.3V56.3a4.241,4.241,0,0,0-4.3-4.3ZM251,54.539h.442v3.753h-3.753V54.539ZM239.848,60.72a3.869,3.869,0,0,1,3.2-1.656,4.024,4.024,0,0,1,3.2,1.656,4.162,4.162,0,0,1,.773,2.318,3.863,3.863,0,1,1-7.727,0,3.327,3.327,0,0,1,.552-2.318Zm12.142,9.051a2.1,2.1,0,0,1-2.1,2.1H236.315a2.1,2.1,0,0,1-2.1-2.1V60.72h3.311a5.119,5.119,0,0,0-.442,2.318,6.071,6.071,0,1,0,12.142,0,5.765,5.765,0,0,0-.442-2.318H252.1v9.051Z" transform="translate(-229.4 -49.5)"/></g></svg>