<svg xmlns="http://www.w3.org/2000/svg" xmlns:xlink="http://www.w3.org/1999/xlink" width="153.155" height="102.173" viewBox="0 0 153.155 102.173"><defs><style>.a{fill:#fff;}.b{fill:#8ac4e3;}.c{fill:#d2d2d6;}.d{filter:url(#aq);}.e{filter:url(#ao);}.f{filter:url(#am);}.g{filter:url(#ak);}.h{filter:url(#ai);}.i{filter:url(#ag);}.j{filter:url(#ae);}.k{filter:url(#ac);}.l{filter:url(#aa);}.m{filter:url(#y);}.n{filter:url(#w);}.o{filter:url(#u);}.p{filter:url(#s);}.q{filter:url(#q);}.r{filter:url(#o);}.s{filter:url(#m);}.t{filter:url(#k);}.u{filter:url(#i);}.v{filter:url(#g);}.w{filter:url(#e);}.x{filter:url(#c);}.y{filter:url(#a);}</style><filter id="a" x="0" y="3.269" width="40.367" height="27.798" filterUnits="userSpaceOnUse"><feOffset dx="2" dy="2" input="SourceAlpha"/><feGaussianBlur stdDeviation="1.5" result="b"/><feFlood flood-opacity="0.161"/><feComposite operator="in" in2="b"/><feComposite in="SourceGraphic"/></filter><filter id="c" x="0" y="26.971" width="40.367" height="27.798" filterUnits="userSpaceOnUse"><feOffset dx="2" dy="2" input="SourceAlpha"/><feGaussianBlur stdDeviation="1.5" result="d"/><feFlood flood-opacity="0.161"/><feComposite operator="in" in2="d"/><feComposite in="SourceGraphic"/></filter><filter id="e" x="36.779" y="3.269" width="40.367" height="27.798" filterUnits="userSpaceOnUse"><feOffset dx="2" dy="2" input="SourceAlpha"/><feGaussianBlur stdDeviation="1.5" result="f"/><feFlood flood-opacity="0.161"/><feComposite operator="in" in2="f"/><feComposite in="SourceGraphic"/></filter><filter id="g" x="36.779" y="26.971" width="40.367" height="27.798" filterUnits="userSpaceOnUse"><feOffset dx="2" dy="2" input="SourceAlpha"/><feGaussianBlur stdDeviation="1.5" result="h"/><feFlood flood-opacity="0.161"/><feComposite operator="in" in2="h"/><feComposite in="SourceGraphic"/></filter><filter id="i" x="0" y="50.673" width="40.367" height="27.798" filterUnits="userSpaceOnUse"><feOffset dx="2" dy="2" input="SourceAlpha"/><feGaussianBlur stdDeviation="1.5" result="j"/><feFlood flood-opacity="0.161"/><feComposite operator="in" in2="j"/><feComposite in="SourceGraphic"/></filter><filter id="k" x="0" y="74.375" width="40.367" height="27.798" filterUnits="userSpaceOnUse"><feOffset dx="2" dy="2" input="SourceAlpha"/><feGaussianBlur stdDeviation="1.5" result="l"/><feFlood flood-opacity="0.161"/><feComposite operator="in" in2="l"/><feComposite in="SourceGraphic"/></filter><filter id="m" x="36.779" y="50.673" width="40.367" height="27.798" filterUnits="userSpaceOnUse"><feOffset dx="2" dy="2" input="SourceAlpha"/><feGaussianBlur stdDeviation="1.5" result="n"/><feFlood flood-opacity="0.161"/><feComposite operator="in" in2="n"/><feComposite in="SourceGraphic"/></filter><filter id="o" x="36.779" y="74.375" width="40.367" height="27.798" filterUnits="userSpaceOnUse"><feOffset dx="2" dy="2" input="SourceAlpha"/><feGaussianBlur stdDeviation="1.5" result="p"/><feFlood flood-opacity="0.161"/><feComposite operator="in" in2="p"/><feComposite in="SourceGraphic"/></filter><filter id="q" x="72.74" y="3.269" width="40.367" height="27.798" filterUnits="userSpaceOnUse"><feOffset dx="2" dy="2" input="SourceAlpha"/><feGaussianBlur stdDeviation="1.5" result="r"/><feFlood flood-opacity="0.161"/><feComposite operator="in" in2="r"/><feComposite in="SourceGraphic"/></filter><filter id="s" x="72.74" y="26.971" width="40.367" height="27.798" filterUnits="userSpaceOnUse"><feOffset dx="2" dy="2" input="SourceAlpha"/><feGaussianBlur stdDeviation="1.5" result="t"/><feFlood flood-opacity="0.161"/><feComposite operator="in" in2="t"/><feComposite in="SourceGraphic"/></filter><filter id="u" x="109.519" y="3.269" width="40.367" height="27.798" filterUnits="userSpaceOnUse"><feOffset dx="2" dy="2" input="SourceAlpha"/><feGaussianBlur stdDeviation="1.5" result="v"/><feFlood flood-opacity="0.161"/><feComposite operator="in" in2="v"/><feComposite in="SourceGraphic"/></filter><filter id="w" x="109.519" y="26.971" width="40.367" height="27.798" filterUnits="userSpaceOnUse"><feOffset dx="2" dy="2" input="SourceAlpha"/><feGaussianBlur stdDeviation="1.5" result="x"/><feFlood flood-opacity="0.161"/><feComposite operator="in" in2="x"/><feComposite in="SourceGraphic"/></filter><filter id="y" x="72.74" y="50.673" width="40.367" height="27.798" filterUnits="userSpaceOnUse"><feOffset dx="2" dy="2" input="SourceAlpha"/><feGaussianBlur stdDeviation="1.5" result="z"/><feFlood flood-opacity="0.161"/><feComposite operator="in" in2="z"/><feComposite in="SourceGraphic"/></filter><filter id="aa" x="72.74" y="74.375" width="40.367" height="27.798" filterUnits="userSpaceOnUse"><feOffset dx="2" dy="2" input="SourceAlpha"/><feGaussianBlur stdDeviation="1.5" result="ab"/><feFlood flood-opacity="0.161"/><feComposite operator="in" in2="ab"/><feComposite in="SourceGraphic"/></filter><filter id="ac" x="109.519" y="50.673" width="40.367" height="27.798" filterUnits="userSpaceOnUse"><feOffset dx="2" dy="2" input="SourceAlpha"/><feGaussianBlur stdDeviation="1.5" result="ad"/><feFlood flood-opacity="0.161"/><feComposite operator="in" in2="ad"/><feComposite in="SourceGraphic"/></filter><filter id="ae" x="109.519" y="74.375" width="40.367" height="27.798" filterUnits="userSpaceOnUse"><feOffset dx="2" dy="2" input="SourceAlpha"/><feGaussianBlur stdDeviation="1.5" result="af"/><feFlood flood-opacity="0.161"/><feComposite operator="in" in2="af"/><feComposite in="SourceGraphic"/></filter><filter id="ag" x="76.009" y="23.702" width="40.367" height="27.798" filterUnits="userSpaceOnUse"><feOffset dx="2" dy="2" input="SourceAlpha"/><feGaussianBlur stdDeviation="1.5" result="ah"/><feFlood flood-opacity="0.161"/><feComposite operator="in" in2="ah"/><feComposite in="SourceGraphic"/></filter><filter id="ai" x="3.269" y="47.404" width="40.367" height="27.798" filterUnits="userSpaceOnUse"><feOffset dx="2" dy="2" input="SourceAlpha"/><feGaussianBlur stdDeviation="1.5" result="aj"/><feFlood flood-opacity="0.161"/><feComposite operator="in" in2="aj"/><feComposite in="SourceGraphic"/></filter><filter id="ak" x="40.048" y="23.702" width="40.367" height="27.798" filterUnits="userSpaceOnUse"><feOffset dx="2" dy="2" input="SourceAlpha"/><feGaussianBlur stdDeviation="1.5" result="al"/><feFlood flood-opacity="0.161"/><feComposite operator="in" in2="al"/><feComposite in="SourceGraphic"/></filter><filter id="am" x="112.788" y="0" width="40.367" height="27.798" filterUnits="userSpaceOnUse"><feOffset dx="2" dy="2" input="SourceAlpha"/><feGaussianBlur stdDeviation="1.5" result="an"/><feFlood flood-opacity="0.161"/><feComposite operator="in" in2="an"/><feComposite in="SourceGraphic"/></filter><filter id="ao" x="3.269" y="71.105" width="40.367" height="27.798" filterUnits="userSpaceOnUse"><feOffset dx="2" dy="2" input="SourceAlpha"/><feGaussianBlur stdDeviation="1.5" result="ap"/><feFlood flood-opacity="0.161"/><feComposite operator="in" in2="ap"/><feComposite in="SourceGraphic"/></filter><filter id="aq" x="76.009" y="47.404" width="40.367" height="27.798" filterUnits="userSpaceOnUse"><feOffset dx="2" dy="2" input="SourceAlpha"/><feGaussianBlur stdDeviation="1.5" result="ar"/><feFlood flood-opacity="0.161"/><feComposite operator="in" in2="ar"/><feComposite in="SourceGraphic"/></filter></defs><g transform="translate(2.5 2.5)"><g class="y" transform="matrix(1, 0, 0, 1, -2.5, -2.5)"><path class="a" d="M0,0H31.367V18.8H0Z" transform="translate(2.5 5.77)"/></g><g class="x" transform="matrix(1, 0, 0, 1, -2.5, -2.5)"><path class="a" d="M0,0H31.367V18.8H0Z" transform="translate(2.5 29.47)"/></g><g class="w" transform="matrix(1, 0, 0, 1, -2.5, -2.5)"><path class="a" d="M0,0H31.367V18.8H0Z" transform="translate(39.28 5.77)"/></g><g class="v" transform="matrix(1, 0, 0, 1, -2.5, -2.5)"><path class="a" d="M0,0H31.367V18.8H0Z" transform="translate(39.28 29.47)"/></g><g class="u" transform="matrix(1, 0, 0, 1, -2.5, -2.5)"><path class="a" d="M0,0H31.367V18.8H0Z" transform="translate(2.5 53.17)"/></g><g class="t" transform="matrix(1, 0, 0, 1, -2.5, -2.5)"><path class="a" d="M0,0H31.367V18.8H0Z" transform="translate(2.5 76.87)"/></g><g class="s" transform="matrix(1, 0, 0, 1, -2.5, -2.5)"><path class="a" d="M0,0H31.367V18.8H0Z" transform="translate(39.28 53.17)"/></g><g class="r" transform="matrix(1, 0, 0, 1, -2.5, -2.5)"><path class="a" d="M0,0H31.367V18.8H0Z" transform="translate(39.28 76.87)"/></g><g class="q" transform="matrix(1, 0, 0, 1, -2.5, -2.5)"><path class="a" d="M0,0H31.367V18.8H0Z" transform="translate(75.24 5.77)"/></g><g class="p" transform="matrix(1, 0, 0, 1, -2.5, -2.5)"><path class="a" d="M0,0H31.367V18.8H0Z" transform="translate(75.24 29.47)"/></g><g class="o" transform="matrix(1, 0, 0, 1, -2.5, -2.5)"><path class="a" d="M0,0H31.367V18.8H0Z" transform="translate(112.02 5.77)"/></g><g class="n" transform="matrix(1, 0, 0, 1, -2.5, -2.5)"><path class="a" d="M0,0H31.367V18.8H0Z" transform="translate(112.02 29.47)"/></g><g class="m" transform="matrix(1, 0, 0, 1, -2.5, -2.5)"><path class="a" d="M0,0H31.367V18.8H0Z" transform="translate(75.24 53.17)"/></g><g class="l" transform="matrix(1, 0, 0, 1, -2.5, -2.5)"><path class="a" d="M0,0H31.367V18.8H0Z" transform="translate(75.24 76.87)"/></g><g class="k" transform="matrix(1, 0, 0, 1, -2.5, -2.5)"><path class="a" d="M0,0H31.367V18.8H0Z" transform="translate(112.02 53.17)"/></g><g class="j" transform="matrix(1, 0, 0, 1, -2.5, -2.5)"><path class="a" d="M0,0H31.367V18.8H0Z" transform="translate(112.02 76.87)"/></g><g class="i" transform="matrix(1, 0, 0, 1, -2.5, -2.5)"><path class="a" d="M0,0H31.367V18.8H0Z" transform="translate(78.51 26.2)"/></g><g class="h" transform="matrix(1, 0, 0, 1, -2.5, -2.5)"><path class="a" d="M0,0H31.367V18.8H0Z" transform="translate(5.77 49.9)"/></g><g class="g" transform="matrix(1, 0, 0, 1, -2.5, -2.5)"><path class="b" d="M0,0H31.367V18.8H0Z" transform="translate(42.55 26.2)"/></g><g class="f" transform="matrix(1, 0, 0, 1, -2.5, -2.5)"><path class="b" d="M0,0H31.367V18.8H0Z" transform="translate(115.29 2.5)"/></g><g class="e" transform="matrix(1, 0, 0, 1, -2.5, -2.5)"><path class="c" d="M0,0H31.367V18.8H0Z" transform="translate(5.77 73.61)"/></g><g class="d" transform="matrix(1, 0, 0, 1, -2.5, -2.5)"><path class="c" d="M0,0H31.367V18.8H0Z" transform="translate(78.51 49.9)"/></g></g></svg>