<svg xmlns="http://www.w3.org/2000/svg" xmlns:xlink="http://www.w3.org/1999/xlink" width="33.549" height="30.042" viewBox="0 0 33.549 30.042"><defs><style>.a{fill:#fff;}.b{filter:url(#a);}</style><filter id="a" x="0" y="0" width="33.549" height="30.042" filterUnits="userSpaceOnUse"><feOffset dx="2" dy="2" input="SourceAlpha"/><feGaussianBlur stdDeviation="1.5" result="b"/><feFlood flood-opacity="0.161"/><feComposite operator="in" in2="b"/><feComposite in="SourceGraphic"/></filter></defs><g class="b" transform="matrix(1, 0, 0, 1, 0, 0)"><path class="a" d="M133.627,57.273a5.5,5.5,0,0,0,2.221-2.923,10.566,10.566,0,0,1-3.156,1.286A4.794,4.794,0,0,0,129.068,54a5.118,5.118,0,0,0-5.027,5.261,3.6,3.6,0,0,0,.117,1.169,14.2,14.2,0,0,1-10.4-5.494,5.43,5.43,0,0,0-.7,2.689,5.529,5.529,0,0,0,2.221,4.442,4.215,4.215,0,0,1-2.338-.7v.117a5.4,5.4,0,0,0,4.092,5.261,4.972,4.972,0,0,1-1.286.234,2.574,2.574,0,0,1-.935-.117,5.126,5.126,0,0,0,4.676,3.741,9.881,9.881,0,0,1-6.313,2.221A3.977,3.977,0,0,1,112,72.7a13.644,13.644,0,0,0,7.715,2.338c9.235,0,14.379-8.066,14.379-15.08v-.7a8.2,8.2,0,0,0,2.455-2.806A8.384,8.384,0,0,1,133.627,57.273Z" transform="translate(-109.5 -51.5)"/></g></svg>